<svg width="18" height="23" viewBox="0 0 18 23" fill="none" xmlns="http://www.w3.org/2000/svg">
<path id="Vector" d="M9 11.25C9.61875 11.25 10.1484 11.0297 10.5891 10.5891C11.0297 10.1484 11.25 9.61875 11.25 9C11.25 8.38125 11.0297 7.85156 10.5891 7.41094C10.1484 6.97031 9.61875 6.75 9 6.75C8.38125 6.75 7.85156 6.97031 7.41094 7.41094C6.97031 7.85156 6.75 8.38125 6.75 9C6.75 9.61875 6.97031 10.1484 7.41094 10.5891C7.85156 11.0297 8.38125 11.25 9 11.25ZM9 19.5188C11.2875 17.4188 12.9844 15.5109 14.0906 13.7953C15.1969 12.0797 15.75 10.5562 15.75 9.225C15.75 7.18125 15.0984 5.50781 13.7953 4.20469C12.4922 2.90156 10.8938 2.25 9 2.25C7.10625 2.25 5.50781 2.90156 4.20469 4.20469C2.90156 5.50781 2.25 7.18125 2.25 9.225C2.25 10.5562 2.80313 12.0797 3.90938 13.7953C5.01562 15.5109 6.7125 17.4188 9 19.5188ZM9 22.5C5.98125 19.9312 3.72656 17.5453 2.23594 15.3422C0.745313 13.1391 0 11.1 0 9.225C0 6.4125 0.904688 4.17188 2.71406 2.50313C4.52344 0.834375 6.61875 0 9 0C11.3812 0 13.4766 0.834375 15.2859 2.50313C17.0953 4.17188 18 6.4125 18 9.225C18 11.1 17.2547 13.1391 15.7641 15.3422C14.2734 17.5453 12.0188 19.9312 9 22.5Z" fill="black"/>
</svg>
