<svg width="26" height="24" viewBox="0 0 26 24" fill="none" xmlns="http://www.w3.org/2000/svg">
<g id="Icon">
<path fill-rule="evenodd" clip-rule="evenodd" d="M7.12126 0.50248H19.3872C20.9897 0.457449 22.5445 1.02731 23.7053 2.08513C24.866 3.14295 25.5363 4.60087 25.5668 6.13412V14.6151C25.4713 17.7671 22.7417 20.2585 19.4456 20.2021H17.5531C17.0774 20.2032 16.6273 20.4083 16.3265 20.7607L14.5392 22.9397C14.2398 23.294 13.789 23.5 13.3126 23.5C12.8363 23.5 12.3854 23.294 12.086 22.9397L10.2403 20.7161C9.9395 20.3636 9.4894 20.1586 9.01371 20.1574H7.12126C3.82516 20.2138 1.09549 17.7224 1 14.5704V6.08943C1.08921 2.93479 3.82267 0.439929 7.12126 0.50248ZM19.3988 18.526C21.7451 18.5823 23.6978 16.8144 23.7678 14.5704V6.13412C23.6979 3.88568 21.7379 2.11594 19.3872 2.17856H7.12126C4.77049 2.11594 2.81055 3.88568 2.74059 6.13412V14.5704C2.81055 16.8189 4.77049 18.5886 7.12126 18.526H9.01371C10.0266 18.5262 10.9848 18.9659 11.6188 19.7216L13.2542 21.7105L14.8897 19.7216C15.5236 18.9659 16.4818 18.5262 17.4947 18.526H19.3988Z" fill="#A9A9A9"/>
<path d="M8.87353 8.27951C8.38966 8.27951 7.9974 8.65472 7.9974 9.11755V11.7993C7.9974 12.2621 8.38966 12.6373 8.87353 12.6373C9.35741 12.6373 9.74967 12.2621 9.74967 11.7993V9.11755C9.74967 8.65472 9.35741 8.27951 8.87353 8.27951Z" fill="#A9A9A9"/>
<path d="M13.2542 8.27951C12.7703 8.27951 12.3781 8.65472 12.3781 9.11755V11.7993C12.3781 12.2621 12.7703 12.6373 13.2542 12.6373C13.7381 12.6373 14.1303 12.2621 14.1303 11.7993V9.11755C14.1303 8.65472 13.7381 8.27951 13.2542 8.27951Z" fill="#A9A9A9"/>
<path d="M17.6349 8.27951C17.151 8.27951 16.7587 8.65472 16.7587 9.11755V11.7993C16.7587 12.2621 17.151 12.6373 17.6349 12.6373C18.1188 12.6373 18.511 12.2621 18.511 11.7993V9.11755C18.511 8.65472 18.1188 8.27951 17.6349 8.27951Z" fill="#A9A9A9"/>
<path fill-rule="evenodd" clip-rule="evenodd" d="M7.12126 0.50248H19.3872C20.9897 0.457449 22.5445 1.02731 23.7053 2.08513C24.866 3.14295 25.5363 4.60087 25.5668 6.13412V14.6151C25.4713 17.7671 22.7417 20.2585 19.4456 20.2021H17.5531C17.0774 20.2032 16.6273 20.4083 16.3265 20.7607L14.5392 22.9397C14.2398 23.294 13.789 23.5 13.3126 23.5C12.8363 23.5 12.3854 23.294 12.086 22.9397L10.2403 20.7161C9.9395 20.3636 9.4894 20.1586 9.01371 20.1574H7.12126C3.82516 20.2138 1.09549 17.7224 1 14.5704V6.08943C1.08921 2.93479 3.82267 0.439929 7.12126 0.50248ZM19.3988 18.526C21.7451 18.5823 23.6978 16.8144 23.7678 14.5704V6.13412C23.6979 3.88568 21.7379 2.11594 19.3872 2.17856H7.12126C4.77049 2.11594 2.81055 3.88568 2.74059 6.13412V14.5704C2.81055 16.8189 4.77049 18.5886 7.12126 18.526H9.01371C10.0266 18.5262 10.9848 18.9659 11.6188 19.7216L13.2542 21.7105L14.8897 19.7216C15.5236 18.9659 16.4818 18.5262 17.4947 18.526H19.3988Z" stroke="#A9A9A9" stroke-width="0.4"/>
<path d="M8.87353 8.27951C8.38966 8.27951 7.9974 8.65472 7.9974 9.11755V11.7993C7.9974 12.2621 8.38966 12.6373 8.87353 12.6373C9.35741 12.6373 9.74967 12.2621 9.74967 11.7993V9.11755C9.74967 8.65472 9.35741 8.27951 8.87353 8.27951Z" stroke="#A9A9A9" stroke-width="0.4"/>
<path d="M13.2542 8.27951C12.7703 8.27951 12.3781 8.65472 12.3781 9.11755V11.7993C12.3781 12.2621 12.7703 12.6373 13.2542 12.6373C13.7381 12.6373 14.1303 12.2621 14.1303 11.7993V9.11755C14.1303 8.65472 13.7381 8.27951 13.2542 8.27951Z" stroke="#A9A9A9" stroke-width="0.4"/>
<path d="M17.6349 8.27951C17.151 8.27951 16.7587 8.65472 16.7587 9.11755V11.7993C16.7587 12.2621 17.151 12.6373 17.6349 12.6373C18.1188 12.6373 18.511 12.2621 18.511 11.7993V9.11755C18.511 8.65472 18.1188 8.27951 17.6349 8.27951Z" stroke="#A9A9A9" stroke-width="0.4"/>
</g>
</svg>
