<svg width="27" height="24" viewBox="0 0 27 24" fill="none" xmlns="http://www.w3.org/2000/svg">
<path id="Vector" d="M13.826 24L11.803 22.1835C9.63763 20.2356 7.84781 18.5531 6.43357 17.1361C5.01913 15.7193 3.89649 14.4471 3.06567 13.3194C2.23484 12.1916 1.65356 11.1529 1.32182 10.2031C0.990087 9.25357 0.824219 8.27758 0.824219 7.27515C0.824219 5.20276 1.51796 3.47219 2.90543 2.08344C4.2929 0.69448 6.02167 0 8.09172 0C9.19079 0 10.2369 0.223422 11.2299 0.670268C12.2232 1.11733 13.0886 1.75287 13.826 2.5769C14.5633 1.75287 15.4287 1.11733 16.422 0.670268C17.4153 0.223422 18.4613 0 19.5602 0C21.6347 0 23.3671 0.69448 24.7573 2.08344C26.1478 3.47219 26.843 5.20276 26.843 7.27515C26.843 8.27248 26.6784 9.24592 26.3492 10.1955C26.02 11.1452 25.4387 12.1827 24.6054 13.3079C23.772 14.4331 22.6468 15.7053 21.2298 17.1247C19.813 18.5442 18.0194 20.2305 15.8489 22.1835L13.826 24ZM13.826 20.0947C15.8546 18.2682 17.5235 16.7083 18.8326 15.4149C20.1419 14.1215 21.175 12.9955 21.9319 12.0368C22.6889 11.0781 23.2134 10.2278 23.5057 9.4857C23.7979 8.74365 23.944 8.0069 23.944 7.27547C23.944 6.02137 23.5269 4.97838 22.6927 4.14649C21.8582 3.31481 20.8154 2.89897 19.564 2.89897C18.5837 2.89897 17.6738 3.18038 16.8345 3.74318C15.995 4.30598 15.4159 5.02276 15.0974 5.89352H12.5622C12.246 5.02276 11.6663 4.30598 10.8231 3.74318C9.97999 3.18038 9.07026 2.89897 8.09395 2.89897C6.84729 2.89897 5.80844 3.31481 4.9774 4.14649C4.14636 4.97838 3.73084 6.02126 3.73084 7.27515C3.73084 8.01211 3.87812 8.75437 4.17269 9.50194C4.46705 10.2495 4.9929 11.1023 5.75025 12.0604C6.50738 13.0186 7.53805 14.1432 8.84227 15.434C10.1463 16.7248 11.8075 18.2784 13.826 20.0947Z" fill="url(#paint0_linear_22112_983)"/>
<defs>
<linearGradient id="paint0_linear_22112_983" x1="13.8336" y1="0" x2="13.8336" y2="24" gradientUnits="userSpaceOnUse">
<stop stop-color="#E42C4C"/>
<stop offset="0.35" stop-color="#E92C4C"/>
<stop offset="1" stop-color="#D4215A"/>
</linearGradient>
</defs>
</svg>
