<svg width="28" height="24" viewBox="0 0 28 24" fill="none" xmlns="http://www.w3.org/2000/svg">
<path id="Vector" d="M25.8242 21.9999C25.8242 19.6777 23.5981 17.7022 20.4909 16.9701M17.8242 22C17.8242 19.0545 14.2425 16.6667 9.82422 16.6667C5.40594 16.6667 1.82422 19.0545 1.82422 22M17.8242 12.6667C20.7697 12.6667 23.1576 10.2789 23.1576 7.33333C23.1576 4.38781 20.7697 2 17.8242 2M9.82422 12.6667C6.8787 12.6667 4.49089 10.2789 4.49089 7.33333C4.49089 4.38781 6.8787 2 9.82422 2C12.7697 2 15.1576 4.38781 15.1576 7.33333C15.1576 10.2789 12.7697 12.6667 9.82422 12.6667Z" stroke="#A9A9A9" stroke-width="2.5" stroke-linecap="round" stroke-linejoin="round"/>
</svg>
