<?xml version="1.0" encoding="UTF-8" standalone="no"?><!-- Generator: Gravit.io --><svg xmlns="http://www.w3.org/2000/svg" xmlns:xlink="http://www.w3.org/1999/xlink" style="isolation:isolate" viewBox="0 0 26.019 24" width="26.019pt" height="24pt"><defs><clipPath id="_clipPath_OZtu8SO4MDHr23rG09QS4NVRmbk1Lxcr"><rect width="26.019" height="24"/></clipPath></defs><g clip-path="url(#_clipPath_OZtu8SO4MDHr23rG09QS4NVRmbk1Lxcr)"><path d=" M 13.002 24 L 10.979 22.184 C 8.813 20.236 7.024 18.553 5.609 17.136 C 4.195 15.719 3.072 14.447 2.241 13.319 C 1.411 12.192 0.829 11.153 0.498 10.203 C 0.166 9.254 0 8.278 0 7.275 C 0 5.203 0.694 3.472 2.081 2.083 C 3.469 0.694 5.197 0 7.268 0 C 8.367 0 9.413 0.223 10.406 0.67 C 11.399 1.117 12.264 1.753 13.002 2.577 C 13.739 1.753 14.604 1.117 15.598 0.67 C 16.591 0.223 17.637 0 18.736 0 C 20.81 0 22.543 0.694 23.933 2.083 C 25.324 3.472 26.019 5.203 26.019 7.275 C 26.019 8.272 25.854 9.246 25.525 10.196 C 25.196 11.145 24.614 12.183 23.781 13.308 C 22.948 14.433 21.823 15.705 20.406 17.125 C 18.989 18.544 17.195 20.231 15.025 22.184 L 13.002 24 Z  M 13.002 20.095 C 15.03 18.268 16.699 16.708 18.008 15.415 C 19.318 14.122 20.351 12.996 21.108 12.037 C 21.865 11.078 22.389 10.228 22.681 9.486 C 22.974 8.744 23.12 8.007 23.12 7.275 C 23.12 6.021 22.703 4.978 21.868 4.146 C 21.034 3.315 19.991 2.899 18.74 2.899 C 17.759 2.899 16.85 3.18 16.01 3.743 C 15.171 4.306 14.592 5.023 14.273 5.894 L 11.738 5.894 C 11.422 5.023 10.842 4.306 9.999 3.743 C 9.156 3.18 8.246 2.899 7.27 2.899 C 6.023 2.899 4.984 3.315 4.153 4.146 C 3.322 4.978 2.907 6.021 2.907 7.275 C 2.907 8.012 3.054 8.754 3.348 9.502 C 3.643 10.25 4.169 11.102 4.926 12.06 C 5.683 13.019 6.714 14.143 8.018 15.434 C 9.322 16.725 10.983 18.278 13.002 20.095 Z " fill="rgb(255,255,255)"/></g></svg>