<svg width="16" height="14" viewBox="0 0 16 14" fill="none" xmlns="http://www.w3.org/2000/svg">
<path id="Vector" d="M0 9V8H7V9H0ZM0 5V4H11V5H0ZM0 1V0H11V1H0ZM8.23075 14V11.7905L13.5635 6.48275C13.6622 6.38392 13.764 6.31725 13.869 6.28275C13.974 6.24808 14.079 6.23075 14.184 6.23075C14.2985 6.23075 14.411 6.25225 14.5215 6.29525C14.6322 6.33808 14.7327 6.4025 14.823 6.4885L15.748 7.43275C15.8302 7.53142 15.8927 7.634 15.9355 7.7405C15.9785 7.84683 16 7.95317 16 8.0595C16 8.166 15.9795 8.27342 15.9385 8.38175C15.8975 8.49008 15.834 8.59358 15.748 8.69225L10.4405 14H8.23075ZM9.1155 13.1155H10.0655L13.5328 9.64225L13.0635 9.16725L12.6077 8.67875L9.1155 12.1655V13.1155ZM13.0635 9.16725L12.6077 8.67875L13.5328 9.64225L13.0635 9.16725Z" fill="black"/>
</svg>
