<svg width="21" height="18" viewBox="0 0 21 18" fill="none" xmlns="http://www.w3.org/2000/svg">
<g id="Hear Icon">
<path id="Vector" d="M17.7396 5.43453C17.7396 5.80778 17.7126 6.17214 17.6676 6.51873C17.2537 6.34099 16.8037 6.24324 16.3267 6.24324C15.2287 6.24324 14.2567 6.76756 13.6537 7.56737C13.0418 6.76756 12.0698 6.24324 10.9718 6.24324C9.12684 6.24324 7.63288 7.72734 7.63288 9.56692C7.63288 11.9486 8.91085 13.7704 10.3328 15.0057C10.2878 15.0323 10.2428 15.0412 10.1978 15.059C9.92783 15.1568 9.47784 15.1568 9.20784 15.059C6.8769 14.2681 1.66602 10.9977 1.66602 5.43453C1.66602 2.98176 3.66396 1 6.1299 1C7.59687 1 8.89284 1.69317 9.70282 2.76848C10.5218 1.69317 11.8178 1 13.2757 1C15.7417 1 17.7396 2.98176 17.7396 5.43453Z" stroke="black" stroke-width="1.5" stroke-linecap="round" stroke-linejoin="round"/>
<path id="Vector_2" d="M19.6655 9.56684C19.6655 13.7259 15.7686 16.1787 14.0227 16.7652C13.8157 16.8363 13.4827 16.8363 13.2757 16.7652C12.5287 16.5164 11.3857 15.9209 10.3328 15.0056C8.91078 13.7703 7.63281 11.9485 7.63281 9.56684C7.63281 7.72726 9.12677 6.24316 10.9717 6.24316C12.0697 6.24316 13.0417 6.76748 13.6537 7.5673C14.2567 6.76748 15.2286 6.24316 16.3266 6.24316C16.8036 6.24316 17.2536 6.34092 17.6676 6.51865C18.8465 7.03409 19.6655 8.19826 19.6655 9.56684Z" stroke="black" stroke-width="1.5" stroke-linecap="round" stroke-linejoin="round"/>
</g>
</svg>
