<svg width="15" height="15" viewBox="0 0 15 15" fill="none" xmlns="http://www.w3.org/2000/svg">
<path id="Vector" d="M5.18182 15L3.88636 12.7143L1.43182 12.1429L1.67045 9.5L0 7.5L1.67045 5.5L1.43182 2.85714L3.88636 2.28571L5.18182 0L7.5 1.03571L9.81818 0L11.1136 2.28571L13.5682 2.85714L13.3295 5.5L15 7.5L13.3295 9.5L13.5682 12.1429L11.1136 12.7143L9.81818 15L7.5 13.9643L5.18182 15ZM5.76136 13.1786L7.5 12.3929L9.27273 13.1786L10.2273 11.4643L12.1023 11L11.9318 9L13.1932 7.5L11.9318 5.96429L12.1023 3.96429L10.2273 3.53571L9.23864 1.82143L7.5 2.60714L5.72727 1.82143L4.77273 3.53571L2.89773 3.96429L3.06818 5.96429L1.80682 7.5L3.06818 9L2.89773 11.0357L4.77273 11.4643L5.76136 13.1786ZM6.78409 10.0357L10.6364 6L9.68182 4.96429L6.78409 8L5.31818 6.5L4.36364 7.5L6.78409 10.0357Z" fill="#28A745"/>
</svg>
