<svg width="24" height="24" viewBox="0 0 24 24" fill="none" xmlns="http://www.w3.org/2000/svg">
<path id="Vector" d="M4.54394 18.1849L4.60547 18.257L4.68075 18.1994C5.69218 17.426 6.82297 16.8158 8.07363 16.3692C9.3225 15.9231 10.6311 15.7 12 15.7C13.3689 15.7 14.6775 15.9231 15.9264 16.3692C17.177 16.8158 18.3078 17.426 19.3193 18.1994L19.3945 18.257L19.4561 18.1849C20.1638 17.3558 20.7147 16.4157 21.1086 15.3651C21.5031 14.3132 21.7 13.1912 21.7 12C21.7 9.31365 20.7546 7.02317 18.8657 5.13429C16.9768 3.24541 14.6863 2.3 12 2.3C9.31365 2.3 7.02317 3.24541 5.13429 5.13429C3.24541 7.02317 2.3 9.31365 2.3 12C2.3 13.1912 2.4969 14.3132 2.89137 15.3651C3.28532 16.4157 3.83617 17.3558 4.54394 18.1849ZM17.6397 19.8802L17.7476 19.8L17.6397 19.7198C16.8509 19.1332 15.9813 18.6833 15.0313 18.37C14.0805 18.0565 13.0699 17.9 12 17.9C10.9301 17.9 9.91948 18.0565 8.96868 18.37C8.01869 18.6833 7.14909 19.1332 6.36033 19.7198L6.25241 19.8L6.36033 19.8802C7.14909 20.4668 8.01869 20.9167 8.96868 21.23C9.91948 21.5435 10.9301 21.7 12 21.7C13.0699 21.7 14.0805 21.5435 15.0313 21.23C15.9813 20.9167 16.8509 20.4668 17.6397 19.8802ZM12 13.1C10.8456 13.1 9.87633 12.7049 9.08571 11.9143C8.29509 11.1237 7.9 10.1544 7.9 9C7.9 7.84563 8.29509 6.87633 9.08571 6.08571C9.87633 5.29509 10.8456 4.9 12 4.9C13.1544 4.9 14.1237 5.29509 14.9143 6.08571C15.7049 6.87633 16.1 7.84563 16.1 9C16.1 10.1544 15.7049 11.1237 14.9143 11.9143C14.1237 12.7049 13.1544 13.1 12 13.1ZM12 23.9C10.353 23.9 8.80656 23.5875 7.35962 22.9632C5.91074 22.338 4.65141 21.49 3.58071 20.4193C2.51001 19.3486 1.66202 18.0893 1.03682 16.6404C0.412452 15.1934 0.1 13.647 0.1 12C0.1 10.353 0.412452 8.80656 1.03682 7.35962C1.66202 5.91074 2.51001 4.65141 3.58071 3.58071C4.65141 2.51001 5.91074 1.66202 7.35962 1.03682C8.80656 0.412452 10.353 0.1 12 0.1C13.647 0.1 15.1934 0.412452 16.6404 1.03682C18.0893 1.66202 19.3486 2.51001 20.4193 3.58071C21.49 4.65141 22.338 5.91074 22.9632 7.35962C23.5875 8.80656 23.9 10.353 23.9 12C23.9 13.647 23.5875 15.1934 22.9632 16.6404C22.338 18.0893 21.49 19.3486 20.4193 20.4193C19.3486 21.49 18.0893 22.338 16.6404 22.9632C15.1934 23.5875 13.647 23.9 12 23.9ZM12 10.9C12.5441 10.9 13.0003 10.7211 13.3607 10.3607C13.7211 10.0003 13.9 9.54414 13.9 9C13.9 8.45586 13.7211 7.99966 13.3607 7.63929C13.0003 7.27891 12.5441 7.1 12 7.1C11.4559 7.1 10.9997 7.27891 10.6393 7.63929C10.2789 7.99966 10.1 8.45586 10.1 9C10.1 9.54414 10.2789 10.0003 10.6393 10.3607C10.9997 10.7211 11.4559 10.9 12 10.9Z" fill="#A9A9A9" stroke="white" stroke-width="0.2"/>
</svg>
