<svg width="18" height="19" viewBox="0 0 18 19" fill="none" xmlns="http://www.w3.org/2000/svg">
<path id="edit" d="M2 16.1716H3.425L13.2 6.29176L11.775 4.85147L2 14.7313V16.1716ZM0 18.193V13.8975L13.2 0.581166C13.4 0.395867 13.6208 0.252681 13.8625 0.151609C14.1042 0.0505362 14.3583 0 14.625 0C14.8917 0 15.15 0.0505362 15.4 0.151609C15.65 0.252681 15.8667 0.40429 16.05 0.606434L17.425 2.02145C17.625 2.20675 17.7708 2.42574 17.8625 2.67842C17.9542 2.9311 18 3.18378 18 3.43646C18 3.70599 17.9542 3.96288 17.8625 4.20714C17.7708 4.4514 17.625 4.6746 17.425 4.87674L4.25 18.193H0ZM12.475 5.58425L11.775 4.85147L13.2 6.29176L12.475 5.58425Z" fill="#D4215A" fill-opacity="0.65"/>
</svg>
