<svg width="19" height="20" viewBox="0 0 19 20" fill="none" xmlns="http://www.w3.org/2000/svg">
<path id="today" d="M6.64648 14.5C5.94648 14.5 5.35482 14.2583 4.87148 13.775C4.38815 13.2917 4.14648 12.7 4.14648 12C4.14648 11.3 4.38815 10.7083 4.87148 10.225C5.35482 9.74167 5.94648 9.5 6.64648 9.5C7.34648 9.5 7.93815 9.74167 8.42148 10.225C8.90482 10.7083 9.14648 11.3 9.14648 12C9.14648 12.7 8.90482 13.2917 8.42148 13.775C7.93815 14.2583 7.34648 14.5 6.64648 14.5ZM2.64648 20C2.09648 20 1.62565 19.8042 1.23398 19.4125C0.842318 19.0208 0.646484 18.55 0.646484 18V4C0.646484 3.45 0.842318 2.97917 1.23398 2.5875C1.62565 2.19583 2.09648 2 2.64648 2H3.64648V0H5.64648V2H13.6465V0H15.6465V2H16.6465C17.1965 2 17.6673 2.19583 18.059 2.5875C18.4507 2.97917 18.6465 3.45 18.6465 4V18C18.6465 18.55 18.4507 19.0208 18.059 19.4125C17.6673 19.8042 17.1965 20 16.6465 20H2.64648ZM2.64648 18H16.6465V8H2.64648V18ZM2.64648 6H16.6465V4H2.64648V6Z" fill="url(#paint0_linear_20446_1178)"/>
<defs>
<linearGradient id="paint0_linear_20446_1178" x1="9.64648" y1="0" x2="9.64648" y2="20" gradientUnits="userSpaceOnUse">
<stop stop-color="#E42C4C"/>
<stop offset="0.35" stop-color="#E92C4C"/>
<stop offset="1" stop-color="#D4215A"/>
</linearGradient>
</defs>
</svg>
