<svg width="15" height="14" viewBox="0 0 15 14" fill="none" xmlns="http://www.w3.org/2000/svg">
<path id="Vector" d="M1.5 13.8169C1.0875 13.8169 0.734375 13.6816 0.440625 13.411C0.146875 13.1404 0 12.8151 0 12.4352V2.76337C0 2.38341 0.146875 2.05814 0.440625 1.78756C0.734375 1.51698 1.0875 1.38169 1.5 1.38169H2.25V0H3.75V1.38169H9.75V0H11.25V1.38169H12C12.4125 1.38169 12.7656 1.51698 13.0594 1.78756C13.3531 2.05814 13.5 2.38341 13.5 2.76337V6.21759H12V5.52674H1.5V12.4352H6.75V13.8169H1.5ZM1.5 4.14506H12V2.76337H1.5V4.14506ZM8.25 13.8169V11.6925L12.3938 7.89288C12.5063 7.78925 12.6313 7.71441 12.7688 7.66836C12.9062 7.6223 13.0437 7.59927 13.1812 7.59927C13.3312 7.59927 13.475 7.62518 13.6125 7.67699C13.75 7.72881 13.875 7.80652 13.9875 7.91015L14.6812 8.54918C14.7812 8.65281 14.8594 8.76795 14.9156 8.8946C14.9719 9.02126 15 9.14791 15 9.27457C15 9.40122 14.975 9.53075 14.925 9.66317C14.875 9.79558 14.7937 9.9136 14.6812 10.0172L10.5562 13.8169H8.25ZM9.375 12.7806H10.0875L12.3562 10.6735L12.0187 10.3454L11.6625 10.0345L9.375 12.1243V12.7806ZM12.0187 10.3454L11.6625 10.0345L12.3562 10.6735L12.0187 10.3454Z" fill="#000607"/>
</svg>
