<svg width="20" height="20" viewBox="0 0 20 20" fill="none" xmlns="http://www.w3.org/2000/svg">
<g id="edit_24dp_FILL0_wght200_GRAD0_opsz24 (2) 2">
<path id="Vector" d="M4.16732 15.8335H5.08232L13.9975 6.9185L13.0823 6.00329L4.16732 14.9185V15.8335ZM3.33398 16.6668V14.5675L14.3179 3.57225C14.4034 3.49614 14.4976 3.43732 14.6006 3.39579C14.7038 3.35426 14.8114 3.3335 14.9234 3.3335C15.0353 3.3335 15.1438 3.35113 15.2488 3.38641C15.3536 3.42169 15.4504 3.48523 15.5392 3.57704L16.4286 4.47141C16.5204 4.56002 16.5832 4.65725 16.6169 4.76308C16.6505 4.86905 16.6673 4.97495 16.6673 5.08079C16.6673 5.1937 16.6483 5.30176 16.6102 5.40495C16.5722 5.50801 16.5116 5.60225 16.4286 5.68766L5.43336 16.6668H3.33398ZM13.5319 6.46891L13.0823 6.00329L13.9975 6.9185L13.5319 6.46891Z" fill="#9CA3AB"/>
</g>
</svg>
