<svg width="9" height="9" viewBox="0 0 9 9" fill="none" xmlns="http://www.w3.org/2000/svg">
<path d="M4.53797 8.66683C3.76981 8.66683 3.07272 8.47526 2.4467 8.09213C1.82075 7.70906 1.32975 7.19573 0.973705 6.55215V7.73578H0.382812V5.55324H2.54942V6.14848H1.43047C1.71528 6.72645 2.13622 7.19147 2.6933 7.54352C3.25038 7.89557 3.86527 8.07159 4.53797 8.07159C5.02027 8.07159 5.47266 7.98181 5.89515 7.80225C6.31757 7.62262 6.68737 7.37751 7.00455 7.06693C7.32173 6.75635 7.57641 6.38955 7.76858 5.96653C7.96075 5.54352 8.06442 5.08779 8.07958 4.59937H8.67038C8.65777 5.16306 8.54074 5.69166 8.31929 6.18518C8.09784 6.67863 7.80088 7.10979 7.42842 7.47863C7.05596 7.84748 6.62162 8.13773 6.1254 8.34937C5.62918 8.56101 5.10004 8.66683 4.53797 8.66683ZM0.405562 4.40096C0.423223 3.82457 0.544028 3.28899 0.767976 2.79421C0.99199 2.29944 1.29147 1.86891 1.66643 1.50264C2.04145 1.13631 2.47516 0.849865 2.96757 0.643317C3.45998 0.43677 3.98345 0.333496 4.53797 0.333496C5.29858 0.333496 5.99567 0.525692 6.62924 0.910083C7.26281 1.29441 7.7538 1.8122 8.10223 2.46346V1.26455H8.69313V3.44709H6.52652V2.85185H7.64547C7.36821 2.28406 6.95042 1.82159 6.39209 1.46445C5.83376 1.10731 5.21572 0.928734 4.53797 0.928734C4.06578 0.928734 3.61907 1.01726 3.19782 1.19431C2.77665 1.37136 2.40623 1.61389 2.08655 1.92189C1.76688 2.22996 1.50905 2.5955 1.31307 3.01852C1.11709 3.44153 1.01152 3.90235 0.996356 4.40096H0.405562Z" fill="black"/>
</svg>
