<svg width="25" height="28" viewBox="0 0 25 28" fill="none" xmlns="http://www.w3.org/2000/svg">
<path id="Vector" d="M1.8418 10H23.1751M1.8418 10V21.7336C1.8418 23.2271 1.8418 23.9734 2.13245 24.5438C2.38811 25.0456 2.79576 25.454 3.29753 25.7096C3.8674 26 4.61379 26 6.10434 26H18.9126C20.4031 26 21.1484 26 21.7183 25.7096C22.2201 25.454 22.6291 25.0456 22.8848 24.5438C23.1751 23.974 23.1751 23.2287 23.1751 21.7381V10M1.8418 10V8.93359C1.8418 7.44012 1.8418 6.69283 2.13245 6.1224C2.38811 5.62063 2.79576 5.21298 3.29753 4.95732C3.86796 4.66667 4.61525 4.66667 6.10872 4.66667H7.17513M23.1751 10V8.92921C23.1751 7.43866 23.1751 6.69227 22.8848 6.1224C22.6291 5.62063 22.2201 5.21298 21.7183 4.95732C21.1479 4.66667 20.4022 4.66667 18.9087 4.66667H17.8418M7.17513 4.66667H17.8418M7.17513 4.66667V2M17.8418 4.66667V2M12.1751 20.6667C12.3592 20.6667 12.5085 20.5174 12.5085 20.3333V15.6667C12.5085 15.4826 12.3592 15.3333 12.1751 15.3333H7.50846C7.32437 15.3333 7.17513 15.4826 7.17513 15.6667V20.3333C7.17513 20.5174 7.32437 20.6667 7.50846 20.6667H12.1751Z" stroke="#A9A9A9" stroke-width="2.5" stroke-linecap="round" stroke-linejoin="round"/>
</svg>
